<svg xmlns="http://www.w3.org/2000/svg" version="1.0" width="500.000000pt" height="500.000000pt" viewBox="0 0 500.000000 500.000000" preserveAspectRatio="xMidYMid meet">

<g transform="translate(0.000000,500.000000) scale(0.100000,-0.100000)" fill="#2f4f4f" stroke="none">
<path d="M0 2500 l0 -2500 2500 0 2500 0 0 2500 0 2500 -2500 0 -2500 0 0 -2500z m270 1274 l0 -75 -47 7 c-27 3 -51 8 -55 11 -5 2 -8 33 -8 69 l0 64 55 0 55 0 0 -76z m1620 -125 l0 -202 -46 7 c-25 3 -50 8 -55 12 -10 6 -13 367 -2 377 3 4 28 7 55 7 l48 0 0 -201z m220 -20 c0 -205 -1 -220 -17 -216 -10 3 -35 8 -55 12 l-38 6 0 203 c0 111 3 206 7 209 3 4 28 7 55 7 l48 0 0 -221z m-1877 -274 l37 -6 0 -309 0 -310 755 0 755 0 0 190 c0 212 -6 197 73 184 l37 -7 0 -813 0 -814 -55 0 -55 0 0 580 0 580 -755 0 -755 0 0 -580 0 -580 -55 0 -55 0 0 951 c0 900 1 950 18 946 9 -3 34 -8 55 -12z m1870 -292 c4 -2 7 -362 7 -799 l0 -794 -55 0 -55 0 0 806 0 805 48 -7 c26 -3 50 -8 55 -11z m377 -63 l0 -81 83 3 82 3 3 78 3 77 44 0 45 0 0 -200 0 -200 -45 0 -45 0 0 80 0 80 -85 0 -85 0 0 -80 0 -80 -45 0 -45 0 0 200 0 200 45 0 45 0 0 -80z m751 -114 c43 -104 79 -193 79 -198 0 -4 -21 -8 -46 -8 -44 0 -46 1 -61 40 l-16 40 -79 0 -79 0 -17 -40 c-16 -38 -19 -40 -64 -40 -27 0 -48 2 -48 4 0 2 32 77 70 166 39 89 77 177 85 196 14 33 17 35 56 32 l41 -3 79 -189z m335 129 c22 -35 42 -65 46 -65 3 0 23 29 44 65 l38 65 48 0 c26 0 48 -2 48 -5 0 -2 -29 -52 -65 -110 l-65 -105 0 -90 0 -90 -50 0 -50 0 0 88 0 88 -63 100 c-35 54 -66 105 -71 112 -5 9 6 12 47 12 l55 0 38 -65z m669 -127 c44 -105 82 -195 83 -200 2 -4 -19 -8 -46 -8 -48 0 -49 1 -65 40 l-15 40 -80 0 -80 0 -16 -40 c-15 -39 -17 -40 -65 -40 l-49 0 86 200 87 200 40 0 41 0 79 -192z m549 155 c-9 -53 -9 -53 -70 -53 l-54 0 0 -155 0 -155 -50 0 -50 0 0 155 0 154 -62 3 -63 3 -3 43 -3 42 181 0 181 0 -7 -37z m-1734 -943 l0 -200 -45 0 -45 0 0 200 0 200 45 0 45 0 0 -200z m380 81 l85 -120 3 120 3 119 44 0 45 0 0 -200 0 -200 -43 0 -44 0 -86 122 -87 121 0 -121 0 -122 -45 0 -45 0 0 200 0 200 43 0 43 0 84 -119z m659 88 c54 -29 79 -62 92 -118 12 -52 4 -103 -24 -153 -41 -74 -99 -98 -243 -98 l-104 0 0 193 c0 107 3 197 8 201 4 5 57 6 117 4 94 -4 117 -8 154 -29z" fill="#2f4f4f"/>
<path d="M3083 2897 l-20 -52 39 -3 c22 -2 42 -1 45 2 6 6 -27 95 -37 101 -4 3 -16 -19 -27 -48z" fill="#2f4f4f"/>
<path d="M4097 2918 c-33 -79 -33 -78 17 -78 l46 0 -21 53 c-11 28 -22 54 -24 56 -2 2 -10 -12 -18 -31z" fill="#2f4f4f"/>
<path d="M3910 2094 l0 -117 57 7 c32 4 68 13 80 21 33 22 49 85 34 135 -15 49 -50 70 -121 70 l-50 0 0 -116z" fill="#2f4f4f"/>
</g>
</svg>